<?xml version="1.0" encoding="UTF-8"?>
<!DOCTYPE svg PUBLIC "-//W3C//DTD SVG 1.1//EN" "http://www.w3.org/Graphics/SVG/1.1/DTD/svg11.dtd">
<!-- Creator: CorelDRAW -->
<svg xmlns="http://www.w3.org/2000/svg" xml:space="preserve" width="136.9mm" height="18.7877mm" style="shape-rendering:geometricPrecision; text-rendering:geometricPrecision; image-rendering:optimizeQuality; fill-rule:evenodd; clip-rule:evenodd"
viewBox="0 0 226.524 31.0875"
 xmlns:xlink="http://www.w3.org/1999/xlink">
 <defs>
  <style type="text/css">
   <![CDATA[
    .str0 {stroke:white;stroke-width:0.126086}
    .fil2 {fill:none;fill-rule:nonzero}
    .fil0 {fill:white}
    .fil1 {fill:white;fill-rule:nonzero}
   ]]>
  </style>
 </defs>
 <g id="图层_x0020_1">
  <metadata id="CorelCorpID_0Corel-Layer"/>
  <g id="矩形_16_1_">
   <g id="矩形_16">
    <g>
     <path id="_113376960" class="fil0" d="M3.06462 10.9753l0 1.75114 2.62679 0.000165467 0 7.88037 1.75114 -0.000165467 0 -7.88021 0 -1.75114 -1.75114 -0.000165467 -2.62679 0zm21.0143 0l-6.56706 0 0 1.75114 6.56706 0.000165467 0 2.18896 -4.81576 0 -1.7513 0 0 1.75114 0 2.18896 0 1.75114 1.7513 0 6.56689 0 0 -1.75114 -6.56689 0 0 -2.18896 4.81576 0 1.75114 0 0 -1.75114 0 -2.18896 0 -1.75114 -1.75114 -0.000165467z"/>
    </g>
   </g>
  </g>
  <g id="矩形_17_1_">
   <g id="矩形_17">
    <g>
     <polygon id="_113377536" class="fil0" points="39.8397,10.9753 33.2726,10.9753 33.2726,12.7266 39.8397,12.7266 39.8397,14.9155 33.2726,14.9155 33.2726,16.6667 39.8397,16.6667 39.8397,18.8556 33.2726,18.8556 33.2726,20.6068 39.8397,20.6068 41.5908,20.6068 41.5908,18.8556 41.5908,16.6667 41.5908,14.9155 41.5908,12.7266 41.5908,10.9753 "/>
    </g>
   </g>
  </g>
  <g id="矩形_1_1_">
   <g id="矩形_1">
    <g>
     <polygon id="_113378040" class="fil0" points="-0,0.0302805 -0,0.905933 0.875652,0.905933 0.875652,4.40838 1.75114,4.40838 1.75114,0.905933 1.75114,0.0302805 "/>
    </g>
   </g>
  </g>
  <g id="矩形_2_1_">
   <g id="矩形_2">
    <g>
     <polygon id="_113378520" class="fil0" points="10.945,0.0302805 8.3182,0.0302805 8.3182,0.905933 10.945,0.905933 10.945,1.78158 9.19369,1.78158 8.3182,1.78158 8.3182,2.65707 8.3182,3.53272 8.3182,4.40838 9.19369,4.40838 11.8205,4.40838 11.8205,3.53272 9.19369,3.53272 9.19369,2.65707 10.945,2.65707 11.8205,2.65707 11.8205,1.78158 11.8205,0.905933 11.8205,0.0302805 "/>
    </g>
   </g>
  </g>
  <g id="矩形_3_1_">
   <g id="矩形_3">
    <g>
     <polygon id="_113379000" class="fil0" points="19.7008,0.0302805 17.0741,0.0302805 17.0741,0.905933 19.7008,0.905933 19.7008,1.78158 17.0741,1.78158 17.0741,2.65707 19.7008,2.65707 19.7008,3.53272 17.0741,3.53272 17.0741,4.40838 19.7008,4.40838 20.5765,4.40838 20.5765,3.53272 20.5765,2.65707 20.5765,1.78158 20.5765,0.905933 20.5765,0.0302805 "/>
    </g>
   </g>
  </g>
  <g id="矩形_4_1_">
   <g id="矩形_4">
    <g>
     <polygon id="_113379480" class="fil0" points="28.019,0.0302805 28.019,1.78158 26.2679,1.78158 26.2679,0.0302805 25.3923,0.0302805 25.3923,1.78158 25.3923,2.65707 26.2679,2.65707 28.019,2.65707 28.019,4.40838 28.8947,4.40838 28.8947,2.65707 28.8947,1.78158 28.8947,0.0302805 "/>
    </g>
   </g>
  </g>
  <g id="矩形_5_1_">
   <g id="矩形_5">
    <g>
     <polygon id="_113379960" class="fil0" points="38.0884,0.905933 38.0884,0.0302805 35.4616,0.0302805 34.5861,0.0302805 34.5861,0.905933 34.5861,1.78158 34.5861,2.65707 35.4616,2.65707 37.2129,2.65707 37.2129,3.53272 34.5861,3.53272 34.5861,4.40838 37.2129,4.40838 38.0884,4.40838 38.0884,3.53272 38.0884,2.65707 38.0884,1.78158 37.2129,1.78158 35.4616,1.78158 35.4616,0.905933 "/>
    </g>
   </g>
  </g>
  <g id="矩形_6_1_">
   <g id="矩形_6">
    <g>
     <path id="_113380296" class="fil0" d="M46.4066 0.905933l0 -0.875652 -2.62679 0 -0.875487 0 0 0.875652 0 0.875652 0 0.875652 0 0.875652 0 0.875652 0.875487 -0.000165467 1.7513 0 0.875487 0 0 -0.875652 0 -0.875652 0 -0.875487 -0.875487 0 -1.7513 0 0 -0.875652 2.62679 0zm-0.875487 1.75114l0 0.875652 -1.7513 0 0 -0.875652 1.7513 0z"/>
    </g>
   </g>
  </g>
  <g id="矩形_7_1_">
   <g id="矩形_7">
    <g>
     <polygon id="_113380824" class="fil0" points="54.7248,0.0302805 52.098,0.0302805 52.098,0.905933 54.7248,0.905933 54.7248,4.40838 55.6004,4.40838 55.6004,0.905933 55.6004,0.0302805 "/>
    </g>
   </g>
  </g>
  <g id="矩形_8_1_">
   <g id="矩形_8">
    <g>
     <path id="_113381160" class="fil0" d="M63.4808 0.0302805l-1.7513 0 -0.875487 0 0 0.875652 0 0.875652 0 0.875652 0 0.875652 0 0.875652 0.875487 -0.000165467 1.7513 0 0.875487 0 0 -0.875652 0 -0.875652 0 -0.875487 0 -0.875652 0 -0.875652 -0.875487 0zm0 3.50244l-1.7513 0 0 -0.875652 1.7513 0 0 0.875652zm0 -1.75114l-1.7513 0 0 -0.875652 1.7513 0 0 0.875652z"/>
    </g>
   </g>
  </g>
  <g id="矩形_9_1_">
   <g id="矩形_9">
    <g>
     <path id="_113381544" class="fil0" d="M71.799 0.0302805l-1.7513 0 -0.875487 0 0 0.875652 0 0.875652 0 0.875652 0.875487 -0.000165467 1.7513 0 0 0.875652 -2.62679 0 0 0.875652 2.62679 0 0.875487 0 0 -0.875652 0 -0.875652 0 -0.875487 0 -0.875652 0 -0.875652 -0.875487 0zm0 1.7513l-1.7513 0 0 -0.875652 1.7513 0 0 0.875652z"/>
    </g>
   </g>
  </g>
  <g id="矩形_10_1_">
   <g id="矩形_10">
    <g>
     <path id="_113381904" class="fil0" d="M77.9281 0.0302805l0 0.875652 0.437826 0 0 3.50244 0.875652 0 0 -3.50244 0 -0.875652 -0.875652 0 -0.437826 0zm3.50244 0l-0.875652 0 -0.875487 0 0 0.875652 0 2.62679 0 0.875652 0.875487 0 0.875652 0 0.875652 0 0 -0.875652 0 -2.62679 0 -0.875652 -0.875652 0zm0 3.50244l-0.875652 0 0 -2.62679 0.875652 0 0 2.62679z"/>
    </g>
   </g>
  </g>
  <g id="矩形_11_1_">
   <g id="矩形_11">
    <g>
     <path id="_113810416" class="fil0" d="M87.5597 0.0302805l0 0.875652 0.437661 0 0 3.50244 0.875652 0 0 -3.50244 0 -0.875652 -0.875652 0 -0.437661 0zm2.62679 0l-0.437826 0 0 0.875652 0.437826 0 0 3.50244 0.875487 0 0 -3.50244 0 -0.875652 -0.875487 0z"/>
    </g>
   </g>
  </g>
  <g id="矩形_12_1_">
   <g id="矩形_12">
    <g>
     <path id="_113810800" class="fil0" d="M96.3156 0.0302805l0 0.875652 0.437826 0 0 3.50244 0.875652 0 0 -3.50244 0 -0.875652 -0.875652 0 -0.437826 0zm3.50244 0l-1.75114 0 0 0.875652 1.75114 0 0 0.875652 -0.875652 0 -0.875487 0 0 0.875652 0 0.875652 0 0.875652 0.875487 -0.000165467 1.7513 0 0 -0.875652 -1.7513 0 0 -0.875652 0.875652 0 0.875652 0 0 -0.875487 0 -0.875652 0 -0.875652 -0.875652 0z"/>
    </g>
   </g>
  </g>
  <g id="矩形_13_1_">
   <g id="矩形_13">
    <g>
     <path id="_113811184" class="fil0" d="M105.072 0.0302805l0 0.875652 0.437826 0 0 3.50244 0.875487 0 0 -3.50244 0 -0.875652 -0.875487 0 -0.437826 0zm3.50244 0l-1.7513 0 0 0.875652 1.7513 0 0 0.875652 -1.7513 0 0 0.875652 1.7513 -0.000165467 0 0.875652 -1.7513 0 0 0.875652 1.7513 0 0.875487 0 0 -0.875652 0 -0.875652 0 -0.875487 0 -0.875652 0 -0.875652 -0.875487 0z"/>
    </g>
   </g>
  </g>
  <g id="矩形_14_1_">
   <g id="矩形_14">
    <g>
     <path id="_113811568" class="fil0" d="M113.828 0.0302805l0 0.875652 0.437661 0 0 3.50244 0.875652 0 0 -3.50244 0 -0.875652 -0.875652 0 -0.437661 0zm3.50228 0l0 1.75114 -0.875487 0.000165467 0 -1.7513 -0.875652 0 0 1.75114 0 0.875652 0.875652 0 0.875487 0 0 1.75114 0.875652 0.000165467 0 -1.7513 0 -0.875487 0 -1.7513 -0.875652 0z"/>
    </g>
   </g>
  </g>
  <g id="矩形_15_1_">
   <g id="矩形_15">
    <g>
     <path id="_113811952" class="fil0" d="M122.584 0.905933l0.437826 0 0 3.50244 0.875652 0 0 -4.3781 -1.31348 0 0 0.875652zm4.3781 0l0 -0.875652 -2.62679 0 0 2.62679 1.75114 0 0 0.875652 -1.75114 0 0 0.875652 2.62679 0 0 -2.62679 -1.7513 0 0 -0.875652 1.7513 0z"/>
    </g>
   </g>
  </g>
  <path class="fil1 str0" d="M55.4907 16.8139l-4.10342 0 0 -5.68876 -2.05196 0 0 7.58518 6.15538 0 0 1.89625 2.05179 0 0 -9.48143 -2.05179 0 0 5.68876zm18.4661 -3.79251l0 -1.89625 -8.20717 0 0 5.68876 6.15538 0 0 1.89642 -6.15538 0 0 1.89625 8.20717 0 0 -5.68893 -6.15521 0 0 -1.89625 6.15521 0z"/>
  <polygon class="fil1" points="131.636,4.31836 132.352,4.31836 132.352,0.063043 131.278,0.063043 131.278,0.91404 131.636,0.91404 "/>
  <path id="1" class="fil1" d="M133.068 0.063043l0 4.25532 2.50484 0 0 -2.55316 -1.7892 0 0 -0.851163 1.7892 0 0 -0.850998 -2.50484 0zm1.7892 2.55316l0 0.851163 -1.07355 0 0 -0.851163 1.07355 0z"/>
  <polygon id="12" class="fil1" points="139.866,4.31836 140.582,4.31836 140.582,0.063043 139.508,0.063043 139.508,0.91404 139.866,0.91404 "/>
  <polygon id="123" class="fil1" points="141.298,0.063043 141.298,0.91404 143.087,0.91404 143.087,1.7652 142.729,1.7652 142.729,2.6162 142.371,2.6162 142.371,3.46736 142.013,3.46736 142.013,4.31836 142.729,4.31836 142.729,3.46736 143.087,3.46736 143.087,2.6162 143.445,2.6162 143.445,1.7652 143.803,1.7652 143.803,0.063043 "/>
  <polygon id="1234" class="fil1" points="148.097,4.31836 148.812,4.31836 148.812,0.063043 147.739,0.063043 147.739,0.91404 148.097,0.91404 "/>
  <path id="12345" class="fil1" d="M152.033 4.31836l0 -4.25532 -2.50484 0 0 4.25532 2.50484 0zm-1.7892 -0.850998l0 -0.851163 1.07355 0 0 0.851163 -1.07355 0zm1.07355 -2.55332l0 0.851163 -1.07355 0 0 -0.851163 1.07355 0z"/>
  <polygon id="123456" class="fil1" points="156.327,4.31836 157.042,4.31836 157.042,0.063043 155.969,0.063043 155.969,0.91404 156.327,0.91404 "/>
  <path id="1234567" class="fil1" d="M157.758 0.063043l0 2.55316 1.7892 0 0 0.851163 -1.7892 0 0 0.850998 2.50484 0 0 -4.25532 -2.50484 0zm0.715645 1.70216l0 -0.851163 1.07355 0 0 0.851163 -1.07355 0z"/>
  <polygon id="12345678" class="fil1" points="164.199,0.063043 164.199,0.91404 165.988,0.91404 165.988,1.7652 164.199,1.7652 164.199,4.31836 166.704,4.31836 166.704,3.46736 164.914,3.46736 164.914,2.6162 166.704,2.6162 166.704,0.063043 "/>
  <path id="123456789" class="fil1" d="M167.419 0.063043l0 4.25532 2.50484 0 0 -4.25532 -2.50484 0zm0.715645 3.40432l0 -2.55332 1.07355 0 0 2.55332 -1.07355 0z"/>
  <polygon id="12345678910" class="fil1" points="173.86,0.063043 173.86,0.91404 175.649,0.91404 175.649,1.7652 173.86,1.7652 173.86,4.31836 176.365,4.31836 176.365,3.46736 174.576,3.46736 174.576,2.6162 176.365,2.6162 176.365,0.063043 "/>
  <polygon id="1234567891011" class="fil1" points="177.439,4.31836 178.154,4.31836 178.154,0.063043 177.081,0.063043 177.081,0.91404 177.439,0.91404 "/>
  <polygon id="123456789101112" class="fil1" points="182.09,0.063043 182.09,0.91404 183.879,0.91404 183.879,1.7652 182.09,1.7652 182.09,4.31836 184.595,4.31836 184.595,3.46736 182.806,3.46736 182.806,2.6162 184.595,2.6162 184.595,0.063043 "/>
  <polygon id="12345678910111213" class="fil1" points="185.311,0.063043 185.311,0.91404 187.1,0.91404 187.1,1.7652 185.311,1.7652 185.311,4.31836 187.816,4.31836 187.816,3.46736 186.026,3.46736 186.026,2.6162 187.816,2.6162 187.816,0.063043 "/>
  <polygon id="1234567891011121314" class="fil1" points="191.752,0.063043 191.752,0.91404 193.541,0.91404 193.541,1.7652 191.752,1.7652 191.752,4.31836 194.257,4.31836 194.257,3.46736 192.467,3.46736 192.467,2.6162 194.257,2.6162 194.257,0.063043 "/>
  <polygon id="123456789101112131415" class="fil1" points="194.972,0.063043 194.972,0.91404 196.761,0.91404 196.761,1.7652 195.33,1.7652 195.33,2.6162 196.761,2.6162 196.761,3.46736 194.972,3.46736 194.972,4.31836 197.477,4.31836 197.477,0.063043 "/>
  <polygon id="12345678910111213141516" class="fil1" points="201.413,0.063043 201.413,0.91404 203.202,0.91404 203.202,1.7652 201.413,1.7652 201.413,4.31836 203.918,4.31836 203.918,3.46736 202.129,3.46736 202.129,2.6162 203.918,2.6162 203.918,0.063043 "/>
  <path id="1234567891011121314151617" class="fil1" d="M206.781 0.063043l-1.43146 0 0 0.850998 -0.35774 0 0 0.851163 -0.357905 0 0 1.70216 1.43129 0 0 0.850998 0.715811 0 0 -0.850998 0.35774 0 0 -0.851163 -0.35774 0 0 -2.55316zm-1.43146 2.55316l0 -0.850998 0.357905 0 0 -0.851163 0.35774 0 0 1.70216 -0.715645 0z"/>
  <polygon id="123456789101112131415161718" class="fil1" points="211.075,0.063043 211.075,0.91404 212.864,0.91404 212.864,1.7652 211.075,1.7652 211.075,4.31836 213.579,4.31836 213.579,3.46736 211.79,3.46736 211.79,2.6162 213.579,2.6162 213.579,0.063043 "/>
  <polygon id="12345678910111213141516171819" class="fil1" points="214.295,0.063043 214.295,2.6162 216.084,2.6162 216.084,3.46736 214.295,3.46736 214.295,4.31836 216.8,4.31836 216.8,1.7652 215.011,1.7652 215.011,0.91404 216.8,0.91404 216.8,0.063043 "/>
  <polygon id="1234567891011121314151617181920" class="fil1" points="220.736,0.063043 220.736,0.91404 222.525,0.91404 222.525,1.7652 220.736,1.7652 220.736,4.31836 223.241,4.31836 223.241,3.46736 221.452,3.46736 221.452,2.6162 223.241,2.6162 223.241,0.063043 "/>
  <path id="123456789101112131415161718192021" class="fil1" d="M223.956 0.063043l0 4.25532 2.50484 0 0 -2.55316 -1.7892 0 0 -0.851163 1.7892 0 0 -0.850998 -2.50484 0zm1.7892 2.55316l0 0.851163 -1.07355 0 0 -0.851163 1.07355 0z"/>
  <polygon id="12345678910111213141516171819202122" class="fil2 str0" points="131.636,4.31836 132.352,4.31836 132.352,0.063043 131.278,0.063043 131.278,0.91404 131.636,0.91404 "/>
  <path id="1234567891011121314151617181920212223" class="fil2 str0" d="M133.068 0.063043l0 4.25532 2.50484 0 0 -2.55316 -1.7892 0 0 -0.851163 1.7892 0 0 -0.850998 -2.50484 0zm1.7892 2.55316l0 0.851163 -1.07355 0 0 -0.851163 1.07355 0z"/>
  <polygon id="123456789101112131415161718192021222324" class="fil2 str0" points="139.866,4.31836 140.582,4.31836 140.582,0.063043 139.508,0.063043 139.508,0.91404 139.866,0.91404 "/>
  <polygon id="12345678910111213141516171819202122232425" class="fil2 str0" points="141.298,0.063043 141.298,0.91404 143.087,0.91404 143.087,1.7652 142.729,1.7652 142.729,2.6162 142.371,2.6162 142.371,3.46736 142.013,3.46736 142.013,4.31836 142.729,4.31836 142.729,3.46736 143.087,3.46736 143.087,2.6162 143.445,2.6162 143.445,1.7652 143.803,1.7652 143.803,0.063043 "/>
  <polygon id="1234567891011121314151617181920212223242526" class="fil2 str0" points="148.097,4.31836 148.812,4.31836 148.812,0.063043 147.739,0.063043 147.739,0.91404 148.097,0.91404 "/>
  <path id="123456789101112131415161718192021222324252627" class="fil2 str0" d="M152.033 4.31836l0 -4.25532 -2.50484 0 0 4.25532 2.50484 0zm-1.7892 -0.850998l0 -0.851163 1.07355 0 0 0.851163 -1.07355 0zm1.07355 -2.55332l0 0.851163 -1.07355 0 0 -0.851163 1.07355 0z"/>
  <polygon id="12345678910111213141516171819202122232425262728" class="fil2 str0" points="156.327,4.31836 157.042,4.31836 157.042,0.063043 155.969,0.063043 155.969,0.91404 156.327,0.91404 "/>
  <path id="1234567891011121314151617181920212223242526272829" class="fil2 str0" d="M157.758 0.063043l0 2.55316 1.7892 0 0 0.851163 -1.7892 0 0 0.850998 2.50484 0 0 -4.25532 -2.50484 0zm0.715645 1.70216l0 -0.851163 1.07355 0 0 0.851163 -1.07355 0z"/>
  <polygon id="123456789101112131415161718192021222324252627282930" class="fil2 str0" points="164.199,0.063043 164.199,0.91404 165.988,0.91404 165.988,1.7652 164.199,1.7652 164.199,4.31836 166.704,4.31836 166.704,3.46736 164.914,3.46736 164.914,2.6162 166.704,2.6162 166.704,0.063043 "/>
  <path id="12345678910111213141516171819202122232425262728293031" class="fil2 str0" d="M167.419 0.063043l0 4.25532 2.50484 0 0 -4.25532 -2.50484 0zm0.715645 3.40432l0 -2.55332 1.07355 0 0 2.55332 -1.07355 0z"/>
  <polygon id="1234567891011121314151617181920212223242526272829303132" class="fil2 str0" points="173.86,0.063043 173.86,0.91404 175.649,0.91404 175.649,1.7652 173.86,1.7652 173.86,4.31836 176.365,4.31836 176.365,3.46736 174.576,3.46736 174.576,2.6162 176.365,2.6162 176.365,0.063043 "/>
  <polygon id="123456789101112131415161718192021222324252627282930313233" class="fil2 str0" points="177.439,4.31836 178.154,4.31836 178.154,0.063043 177.081,0.063043 177.081,0.91404 177.439,0.91404 "/>
  <polygon id="12345678910111213141516171819202122232425262728293031323334" class="fil2 str0" points="182.09,0.063043 182.09,0.91404 183.879,0.91404 183.879,1.7652 182.09,1.7652 182.09,4.31836 184.595,4.31836 184.595,3.46736 182.806,3.46736 182.806,2.6162 184.595,2.6162 184.595,0.063043 "/>
  <polygon id="1234567891011121314151617181920212223242526272829303132333435" class="fil2 str0" points="185.311,0.063043 185.311,0.91404 187.1,0.91404 187.1,1.7652 185.311,1.7652 185.311,4.31836 187.816,4.31836 187.816,3.46736 186.026,3.46736 186.026,2.6162 187.816,2.6162 187.816,0.063043 "/>
  <polygon id="123456789101112131415161718192021222324252627282930313233343536" class="fil2 str0" points="191.752,0.063043 191.752,0.91404 193.541,0.91404 193.541,1.7652 191.752,1.7652 191.752,4.31836 194.257,4.31836 194.257,3.46736 192.467,3.46736 192.467,2.6162 194.257,2.6162 194.257,0.063043 "/>
  <polygon id="12345678910111213141516171819202122232425262728293031323334353637" class="fil2 str0" points="194.972,0.063043 194.972,0.91404 196.761,0.91404 196.761,1.7652 195.33,1.7652 195.33,2.6162 196.761,2.6162 196.761,3.46736 194.972,3.46736 194.972,4.31836 197.477,4.31836 197.477,0.063043 "/>
  <polygon id="1234567891011121314151617181920212223242526272829303132333435363738" class="fil2 str0" points="201.413,0.063043 201.413,0.91404 203.202,0.91404 203.202,1.7652 201.413,1.7652 201.413,4.31836 203.918,4.31836 203.918,3.46736 202.129,3.46736 202.129,2.6162 203.918,2.6162 203.918,0.063043 "/>
  <path id="123456789101112131415161718192021222324252627282930313233343536373839" class="fil2 str0" d="M206.781 0.063043l-1.43146 0 0 0.850998 -0.35774 0 0 0.851163 -0.357905 0 0 1.70216 1.43129 0 0 0.850998 0.715811 0 0 -0.850998 0.35774 0 0 -0.851163 -0.35774 0 0 -2.55316zm-1.43146 2.55316l0 -0.850998 0.357905 0 0 -0.851163 0.35774 0 0 1.70216 -0.715645 0z"/>
  <polygon id="12345678910111213141516171819202122232425262728293031323334353637383940" class="fil2 str0" points="211.075,0.063043 211.075,0.91404 212.864,0.91404 212.864,1.7652 211.075,1.7652 211.075,4.31836 213.579,4.31836 213.579,3.46736 211.79,3.46736 211.79,2.6162 213.579,2.6162 213.579,0.063043 "/>
  <polygon id="1234567891011121314151617181920212223242526272829303132333435363738394041" class="fil2 str0" points="214.295,0.063043 214.295,2.6162 216.084,2.6162 216.084,3.46736 214.295,3.46736 214.295,4.31836 216.8,4.31836 216.8,1.7652 215.011,1.7652 215.011,0.91404 216.8,0.91404 216.8,0.063043 "/>
  <polygon id="123456789101112131415161718192021222324252627282930313233343536373839404142" class="fil2 str0" points="220.736,0.063043 220.736,0.91404 222.525,0.91404 222.525,1.7652 220.736,1.7652 220.736,4.31836 223.241,4.31836 223.241,3.46736 221.452,3.46736 221.452,2.6162 223.241,2.6162 223.241,0.063043 "/>
  <path id="12345678910111213141516171819202122232425262728293031323334353637383940414243" class="fil2 str0" d="M223.956 0.063043l0 4.25532 2.50484 0 0 -2.55316 -1.7892 0 0 -0.851163 1.7892 0 0 -0.850998 -2.50484 0zm1.7892 2.55316l0 0.851163 -1.07355 0 0 -0.851163 1.07355 0z"/>
  <g id="矩形_1_1__0">
   <g id="矩形_1_1">
    <g>
     <polygon id="_113366232" class="fil0" points="-0,25.1813 -0,26.3626 1.18127,26.3626 1.18127,31.0873 2.36221,31.0873 2.36221,26.3626 2.36221,25.1813 "/>
    </g>
   </g>
  </g>
  <g id="矩形_2_1__2">
   <g id="矩形_2_3">
    <g>
     <polygon id="_113366472" class="fil0" points="14.7646,25.1813 11.2212,25.1813 11.2212,26.3626 14.7646,26.3626 14.7646,27.5438 12.4023,27.5438 11.2212,27.5438 11.2212,28.7248 11.2212,29.906 11.2212,31.0873 12.4023,31.0873 15.9457,31.0873 15.9457,29.906 12.4023,29.906 12.4023,28.7248 14.7646,28.7248 15.9457,28.7248 15.9457,27.5438 15.9457,26.3626 15.9457,25.1813 "/>
    </g>
   </g>
  </g>
  <g id="矩形_3_1__4">
   <g id="矩形_3_5">
    <g>
     <polygon id="_113366712" class="fil0" points="26.5762,25.1813 23.0327,25.1813 23.0327,26.3626 26.5762,26.3626 26.5762,27.5438 23.0327,27.5438 23.0327,28.7248 26.5762,28.7248 26.5762,29.906 23.0327,29.906 23.0327,31.0873 26.5762,31.0873 27.7574,31.0873 27.7574,29.906 27.7574,28.7248 27.7574,27.5438 27.7574,26.3626 27.7574,25.1813 "/>
    </g>
   </g>
  </g>
  <g id="矩形_4_1__6">
   <g id="矩形_4_7">
    <g>
     <polygon id="_113366952" class="fil0" points="37.7973,25.1813 37.7973,27.5438 35.4351,27.5438 35.4351,25.1813 34.2538,25.1813 34.2538,27.5438 34.2538,28.7248 35.4351,28.7248 37.7973,28.7248 37.7973,31.0873 38.9786,31.0873 38.9786,28.7248 38.9786,27.5438 38.9786,25.1813 "/>
    </g>
   </g>
  </g>
  <g id="矩形_5_1__8">
   <g id="矩形_5_9">
    <g>
     <polygon id="_113367192" class="fil0" points="51.3809,26.3626 51.3809,25.1813 47.8374,25.1813 46.6563,25.1813 46.6563,26.3626 46.6563,27.5438 46.6563,28.7248 47.8374,28.7248 50.1998,28.7248 50.1998,29.906 46.6563,29.906 46.6563,31.0873 50.1998,31.0873 51.3809,31.0873 51.3809,29.906 51.3809,28.7248 51.3809,27.5438 50.1998,27.5438 47.8374,27.5438 47.8374,26.3626 "/>
    </g>
   </g>
  </g>
  <g id="矩形_6_1__10">
   <g id="矩形_6_11">
    <g>
     <path id="_113367432" class="fil0" d="M62.602 26.3626l0 -1.18127 -3.54348 0 -1.1811 0 0 1.18127 0 1.18127 0 1.18127 0 1.1811 0 1.18127 1.1811 -0.000165467 2.36237 0 1.1811 0 0 -1.18127 0 -1.18127 0 -1.18094 -1.1811 0 -2.36237 0 0 -1.18127 3.54348 0zm-1.1811 2.36221l0 1.18127 -2.36237 0 0 -1.18127 2.36237 0z"/>
    </g>
   </g>
  </g>
  <g id="矩形_7_1__12">
   <g id="矩形_7_13">
    <g>
     <polygon id="_113367672" class="fil0" points="73.8232,25.1813 70.2797,25.1813 70.2797,26.3626 73.8232,26.3626 73.8232,31.0873 75.0044,31.0873 75.0044,26.3626 75.0044,25.1813 "/>
    </g>
   </g>
  </g>
  <g id="矩形_8_1__14">
   <g id="矩形_8_15">
    <g>
     <path id="_113367912" class="fil0" d="M85.635 25.1813l-2.36254 0 -1.1811 0 0 1.18127 0 1.18127 0 1.18127 0 1.1811 0 1.18127 1.1811 -0.000165467 2.36254 0 1.18094 0 0 -1.18127 0 -1.18127 0 -1.18094 0 -1.18127 0 -1.18127 -1.18094 0zm0 4.72475l-2.36254 0 0 -1.18127 2.36254 0 0 1.18127zm0 -2.36221l-2.36254 0 0 -1.18127 2.36254 0 0 1.18127z"/>
    </g>
   </g>
  </g>
  <g id="矩形_9_1__16">
   <g id="矩形_9_17">
    <g>
     <path id="_113826664" class="fil0" d="M96.8562 25.1813l-2.36254 0 -1.1811 0 0 1.18127 0 1.18127 0 1.18127 1.1811 -0.000330934 2.36254 0 0 1.18127 -3.54364 0 0 1.18127 3.54364 0 1.18094 0 0 -1.18127 0 -1.18127 0 -1.18094 0 -1.18127 0 -1.18127 -1.18094 0zm0 2.36254l-2.36254 0 0 -1.18127 2.36254 0 0 1.18127z"/>
    </g>
   </g>
  </g>
  <g id="矩形_10_1__18">
   <g id="矩形_10_19">
    <g>
     <path id="_113826424" class="fil0" d="M105.124 25.1813l0 1.18127 0.590552 0 0 4.72475 1.18127 0 0 -4.72475 0 -1.18127 -1.18127 0 -0.590552 0zm4.72475 0l-1.18127 0 -1.1811 0 0 1.18127 0 3.54348 0 1.18127 1.1811 0 1.18127 0 1.1811 0 0 -1.18127 0 -3.54348 0 -1.18127 -1.1811 0zm0 4.72475l-1.18127 0 0 -3.54348 1.18127 0 0 3.54348z"/>
    </g>
   </g>
  </g>
  <g id="矩形_11_1__20">
   <g id="矩形_11_21">
    <g>
     <path id="_113826184" class="fil0" d="M118.117 25.1813l0 1.18127 0.590387 0 0 4.72475 1.18127 0 0 -4.72475 0 -1.18127 -1.18127 0 -0.590387 0zm3.54348 0l-0.590552 0 0 1.18127 0.590552 0 0 4.72475 1.1811 0 0 -4.72475 0 -1.18127 -1.1811 0z"/>
    </g>
   </g>
  </g>
  <g id="矩形_12_1__22">
   <g id="矩形_12_23">
    <g>
     <path id="_113825944" class="fil0" d="M129.929 25.1813l0 1.18127 0.590552 0 0 4.72475 1.18127 0 0 -4.72475 0 -1.18127 -1.18127 0 -0.590552 0zm4.72475 0l-2.36221 0 0 1.18127 2.36221 0 0 1.18127 -1.18127 0 -1.18094 0 0 1.18127 0 1.1811 0 1.18127 1.18094 -0.000165467 2.36254 0 0 -1.18127 -2.36254 0 0 -1.18127 1.18127 0 1.18127 0 0 -1.18094 0 -1.18127 0 -1.18127 -1.18127 0z"/>
    </g>
   </g>
  </g>
  <g id="矩形_13_1__24">
   <g id="矩形_13_25">
    <g>
     <path id="_113824312" class="fil0" d="M141.74 25.1813l0 1.18127 0.590718 0 0 4.72475 1.18094 0 0 -4.72475 0 -1.18127 -1.18094 0 -0.590718 0zm4.72491 0l-2.36254 0 0 1.18127 2.36254 0 0 1.18127 -2.36254 0 0 1.18127 2.36254 -0.000330934 0 1.18127 -2.36254 0 0 1.18127 2.36254 0 1.18094 0 0 -1.18127 0 -1.18127 0 -1.18094 0 -1.18127 0 -1.18127 -1.18094 0z"/>
    </g>
   </g>
  </g>
  <g id="矩形_14_1__26">
   <g id="矩形_14_27">
    <g>
     <path id="_113815144" class="fil0" d="M153.552 25.1813l0 1.18127 0.590387 0 0 4.72475 1.18127 0 0 -4.72475 0 -1.18127 -1.18127 0 -0.590387 0zm4.72458 0l0 2.36221 -1.1811 0.000330934 0 -2.36254 -1.18127 0 0 2.36221 0 1.18127 1.18127 0 1.1811 0 0 2.36237 1.18127 0.000165467 0 -2.36254 0 -1.18094 0 -2.36254 -1.18127 0z"/>
    </g>
   </g>
  </g>
  <g id="矩形_15_1__28">
   <g id="矩形_15_29">
    <g>
     <path id="_113817088" class="fil0" d="M165.364 26.3626l0.590718 0 0 4.72475 1.1811 0 0 -5.90602 -1.77182 0 0 1.18127zm5.90602 0l0 -1.18127 -3.54348 0 0 3.54348 2.36221 0 0 1.18127 -2.36221 0 0 1.18127 3.54348 0 0 -3.54348 -2.36254 0 0 -1.18127 2.36254 0z"/>
    </g>
   </g>
  </g>
 </g>
</svg>
